<?xml version="1.0" encoding="UTF-8"?>
<svg xmlns="http://www.w3.org/2000/svg" xmlns:xlink="http://www.w3.org/1999/xlink" width="2404" height="2404" viewBox="0 0 2404 2404">
<path fill-rule="nonzero" fill="rgb(100%, 100%, 100%)" fill-opacity="1" d="M 931.859375 1714.859375 L 1471.859375 1714.859375 L 1471.859375 688.109375 L 931.859375 688.109375 Z M 931.859375 1714.859375 "/>
<path fill-rule="nonzero" fill="rgb(100%, 100%, 100%)" fill-opacity="1" d="M 1.859375 0 C 1.367188 0 0.894531 0.191406 0.542969 0.539062 C 0.195312 0.890625 0 1.371094 0 1.859375 L 0 2401.859375 C 0 2402.886719 0.832031 2403.71875 1.859375 2403.71875 L 2401.859375 2403.71875 C 2402.351562 2403.71875 2402.820312 2403.523438 2403.179688 2403.175781 C 2403.519531 2402.824219 2403.71875 2402.351562 2403.71875 2401.859375 L 2403.71875 1.859375 C 2403.71875 0.828125 2402.890625 0 2401.859375 0 Z M 1.859375 0 "/>
<path fill-rule="nonzero" fill="rgb(50.976562%, 25.87738%, 0%)" fill-opacity="1" d="M 1185.789062 1089.140625 L 1306.738281 1088.089844 L 1289.980469 1772.480469 L 1334.308594 1081.191406 C 1431.53125 970.828125 1512.46875 897.480469 1577.121094 861.160156 C 1638.898438 821.46875 1747.621094 780.800781 1903.269531 739.140625 L 1772.230469 1507.0625 L 1284.050781 1809.515625 L 1182.578125 1809.828125 L 1185.789062 1089.140625 "/>
<path fill-rule="nonzero" fill="rgb(50.976562%, 25.87738%, 0%)" fill-opacity="1" d="M 1217.929688 1089.140625 L 1096.980469 1088.089844 L 1113.730469 1772.480469 L 1069.410156 1081.191406 C 972.1875 970.828125 891.25 897.480469 826.601562 861.160156 C 764.816406 821.46875 656.097656 780.800781 500.453125 739.140625 L 631.484375 1507.0625 L 1119.671875 1809.515625 L 1221.140625 1809.828125 L 1217.929688 1089.140625 "/>
<path fill-rule="nonzero" fill="rgb(50.976562%, 25.87738%, 0%)" fill-opacity="1" d="M 1287.949219 1112.25 L 1259.730469 1094.851562 C 1318.671875 1001.988281 1379.058594 906.640625 1464.601562 832.359375 C 1550 758.210938 1659.800781 705.660156 1766.960938 654.261719 C 1772.261719 651.71875 1778.5 652.179688 1783.378906 655.449219 C 1788.25 658.730469 1791.03125 664.339844 1790.679688 670.191406 L 1783 798.808594 C 1782.449219 807.949219 1774.609375 814.921875 1765.46875 814.371094 C 1756.328125 813.820312 1749.359375 805.980469 1749.910156 796.839844 L 1757.589844 668.21875 L 1781.300781 684.148438 C 1673.199219 736 1567.730469 786.710938 1486.328125 857.390625 C 1405.070312 927.960938 1347.121094 1019.03125 1287.71875 1112.609375 C 1282.859375 1120.269531 1272.75 1122.601562 1265.03125 1117.839844 C 1257.308594 1113.078125 1254.851562 1103 1259.511719 1095.210938 C 1264.210938 1087.359375 1274.390625 1084.808594 1282.238281 1089.511719 C 1290.101562 1094.210938 1292.648438 1104.390625 1287.949219 1112.25 Z M 1287.949219 1112.25 "/>
<path fill-rule="nonzero" fill="rgb(50.976562%, 25.87738%, 0%)" fill-opacity="1" d="M 1115.769531 1112.25 L 1143.980469 1094.851562 C 1085.050781 1001.988281 1024.660156 906.640625 939.121094 832.359375 C 853.722656 758.210938 743.917969 705.660156 636.757812 654.261719 C 631.460938 651.71875 625.21875 652.179688 620.34375 655.449219 C 615.46875 658.730469 612.691406 664.339844 613.042969 670.191406 L 620.71875 798.808594 C 621.265625 807.949219 629.113281 814.921875 638.253906 814.371094 C 647.390625 813.820312 654.355469 805.980469 653.8125 796.839844 L 646.132812 668.21875 L 622.417969 684.148438 C 730.519531 736 835.984375 786.710938 917.386719 857.390625 C 998.652344 927.960938 1056.601562 1019.03125 1116 1112.609375 C 1120.859375 1120.269531 1130.96875 1122.601562 1138.691406 1117.839844 C 1146.410156 1113.078125 1148.871094 1103 1144.210938 1095.210938 C 1139.511719 1087.359375 1129.328125 1084.808594 1121.480469 1089.511719 C 1113.621094 1094.210938 1111.070312 1104.390625 1115.769531 1112.25 Z M 1115.769531 1112.25 "/>
<path fill-rule="nonzero" fill="rgb(50.976562%, 25.87738%, 0%)" fill-opacity="1" d="M 1248.011719 1110.300781 C 1244.75 1118.601562 1235.5 1122.839844 1227.078125 1119.871094 C 1218.660156 1116.910156 1214.101562 1107.820312 1216.761719 1099.300781 C 1245.128906 1008.429688 1274.398438 914.039062 1340.96875 832.308594 C 1407.128906 751.089844 1509.5 683.230469 1608.871094 617.191406 C 1614.339844 613.558594 1621.441406 613.5 1626.96875 617.03125 C 1632.5 620.570312 1635.429688 627.039062 1634.429688 633.53125 L 1615.929688 753.210938 C 1614.53125 762.261719 1606.058594 768.460938 1597.019531 767.070312 C 1587.96875 765.671875 1581.769531 757.199219 1583.160156 748.148438 L 1601.660156 628.46875 L 1627.21875 644.808594 C 1526.601562 711.679688 1429.011719 776.71875 1366.671875 853.25 C 1304.75 929.269531 1277.039062 1017.46875 1248.410156 1109.179688 L 1217.148438 1098.179688 C 1220.5 1089.660156 1230.121094 1085.460938 1238.640625 1088.808594 C 1247.160156 1092.160156 1251.359375 1101.78125 1248.011719 1110.300781 Z M 1248.011719 1110.300781 "/>
<path fill-rule="nonzero" fill="rgb(50.976562%, 25.87738%, 0%)" fill-opacity="1" d="M 1155.710938 1110.300781 C 1158.96875 1118.601562 1168.21875 1122.839844 1176.640625 1119.871094 C 1185.058594 1116.910156 1189.621094 1107.820312 1186.960938 1099.300781 C 1158.589844 1008.429688 1129.320312 914.039062 1062.75 832.308594 C 996.59375 751.089844 894.214844 683.230469 794.851562 617.191406 C 789.382812 613.558594 782.28125 613.5 776.75 617.03125 C 771.214844 620.570312 768.292969 627.039062 769.296875 633.53125 L 787.792969 753.210938 C 789.191406 762.261719 797.65625 768.460938 806.703125 767.070312 C 815.75 765.671875 821.953125 757.199219 820.554688 748.148438 L 802.058594 628.46875 L 776.5 644.808594 C 877.117188 711.679688 974.710938 776.71875 1037.050781 853.25 C 1098.960938 929.269531 1126.679688 1017.46875 1155.308594 1109.179688 L 1186.570312 1098.179688 C 1183.21875 1089.660156 1173.601562 1085.460938 1165.078125 1088.808594 C 1156.558594 1092.160156 1152.359375 1101.78125 1155.710938 1110.300781 Z M 1155.710938 1110.300781 "/>
<path fill-rule="nonzero" fill="rgb(50.976562%, 25.87738%, 0%)" fill-opacity="1" d="M 1215.140625 1107.25 C 1212.371094 1115.410156 1203.789062 1120.101562 1195.429688 1118 C 1187.058594 1115.910156 1181.691406 1107.75 1183.078125 1099.238281 L 1183.128906 1098.929688 C 1197.539062 1011.101562 1212.371094 920.050781 1258.46875 835.671875 C 1304.410156 751.570312 1380.988281 674.980469 1455.210938 600.558594 C 1460.109375 595.648438 1467.539062 594.308594 1473.851562 597.191406 C 1480.148438 600.078125 1484 606.578125 1483.480469 613.5 L 1474.25 737.621094 C 1473.578125 746.75 1465.628906 753.609375 1456.5 752.929688 C 1447.371094 752.25 1440.519531 744.300781 1441.191406 735.171875 L 1450.421875 611.039062 L 1478.691406 623.96875 C 1403.558594 699.300781 1330.789062 772.441406 1287.558594 851.570312 C 1244.589844 930.210938 1230.390625 1015.640625 1215.851562 1104.289062 L 1215.800781 1104.609375 L 1183.738281 1096.601562 C 1186.679688 1087.929688 1196.089844 1083.289062 1204.761719 1086.230469 C 1213.429688 1089.160156 1218.078125 1098.570312 1215.140625 1107.25 Z M 1215.140625 1107.25 "/>
<path fill-rule="nonzero" fill="rgb(50.976562%, 25.87738%, 0%)" fill-opacity="1" d="M 1188.578125 1107.25 C 1191.351562 1115.410156 1199.929688 1120.101562 1208.289062 1118 C 1216.660156 1115.910156 1222.03125 1107.75 1220.640625 1099.238281 L 1220.589844 1098.929688 C 1206.179688 1011.101562 1191.351562 920.050781 1145.25 835.671875 C 1099.308594 751.570312 1022.730469 674.980469 948.503906 600.558594 C 943.609375 595.648438 936.175781 594.308594 929.871094 597.191406 C 923.566406 600.078125 919.722656 606.578125 920.238281 613.5 L 929.464844 737.621094 C 930.140625 746.75 938.09375 753.609375 947.222656 752.929688 C 956.351562 752.25 963.203125 744.300781 962.523438 735.171875 L 953.296875 611.039062 L 925.03125 623.96875 C 1000.160156 699.300781 1072.929688 772.441406 1116.160156 851.570312 C 1159.128906 930.210938 1173.320312 1015.640625 1187.871094 1104.289062 L 1187.921875 1104.609375 L 1219.980469 1096.601562 C 1217.039062 1087.929688 1207.628906 1083.289062 1198.960938 1086.230469 C 1190.289062 1089.160156 1185.640625 1098.570312 1188.578125 1107.25 Z M 1188.578125 1107.25 "/>
</svg>
